<?xml version="1.0" encoding="UTF-8"?>
<svg version="1.1" xmlns="http://www.w3.org/2000/svg" width="151" height="150">
<path d="M0 0 C2.28255595 1.70599338 4.43314365 3.49040565 6.5703125 5.375 C7.32054688 6.03113281 8.07078125 6.68726562 8.84375 7.36328125 C19.7816193 17.57320362 27.22247897 31.54616672 29.5703125 46.375 C29.60620691 48.92052673 29.59291682 51.4342217 29.52734375 53.9765625 C29.50497305 55.45050765 29.48351576 56.92446689 29.46289062 58.3984375 C29.4256887 60.70742057 29.38241223 63.01568122 29.32348633 65.32421875 C29.26909423 67.56260788 29.23994475 69.80017895 29.21484375 72.0390625 C29.19106155 72.72972809 29.16727936 73.42039368 29.14277649 74.13198853 C29.08608917 76.31515708 29.08608917 76.31515708 29.5703125 79.375 C30.8903125 80.365 32.2103125 81.355 33.5703125 82.375 C33.5703125 99.865 33.5703125 117.355 33.5703125 135.375 C-16.2596875 135.375 -66.0896875 135.375 -117.4296875 135.375 C-117.4296875 118.545 -117.4296875 101.715 -117.4296875 84.375 C-113.4296875 81.375 -113.4296875 81.375 -111.4296875 81.375 C-111.66981567 80.08916016 -111.66981567 80.08916016 -111.91479492 78.77734375 C-114.14436599 64.04462566 -114.51842272 46.19756351 -108.4296875 32.375 C-107.99398437 31.33988281 -107.55828125 30.30476563 -107.109375 29.23828125 C-103.83949619 22.11780745 -99.6122611 16.22200611 -94.4296875 10.375 C-93.91019531 9.76140625 -93.39070313 9.1478125 -92.85546875 8.515625 C-69.67959282 -16.93697426 -27.60344044 -18.46146499 0 0 Z " fill="#CCCDCE" transform="translate(117.4296875,14.625)"/>
<path d="M0 0 C2.28255595 1.70599338 4.43314365 3.49040565 6.5703125 5.375 C7.32054688 6.03113281 8.07078125 6.68726562 8.84375 7.36328125 C19.7816193 17.57320362 27.22247897 31.54616672 29.5703125 46.375 C29.60620691 48.92052673 29.59291682 51.4342217 29.52734375 53.9765625 C29.50497305 55.45050765 29.48351576 56.92446689 29.46289062 58.3984375 C29.4256887 60.70742057 29.38241223 63.01568122 29.32348633 65.32421875 C29.26909423 67.56260788 29.23994475 69.80017895 29.21484375 72.0390625 C29.19106155 72.72972809 29.16727936 73.42039368 29.14277649 74.13198853 C29.08608917 76.31515708 29.08608917 76.31515708 29.5703125 79.375 C30.8903125 80.365 32.2103125 81.355 33.5703125 82.375 C33.5703125 99.865 33.5703125 117.355 33.5703125 135.375 C-16.2596875 135.375 -66.0896875 135.375 -117.4296875 135.375 C-117.4296875 118.545 -117.4296875 101.715 -117.4296875 84.375 C-113.4296875 81.375 -113.4296875 81.375 -111.4296875 81.375 C-111.66981567 80.08916016 -111.66981567 80.08916016 -111.91479492 78.77734375 C-114.14436599 64.04462566 -114.51842272 46.19756351 -108.4296875 32.375 C-107.99398437 31.33988281 -107.55828125 30.30476563 -107.109375 29.23828125 C-103.83949619 22.11780745 -99.6122611 16.22200611 -94.4296875 10.375 C-93.91019531 9.76140625 -93.39070313 9.1478125 -92.85546875 8.515625 C-69.67959282 -16.93697426 -27.60344044 -18.46146499 0 0 Z M-84.4296875 16.375 C-85.13996094 17.05175781 -85.85023437 17.72851562 -86.58203125 18.42578125 C-97.55934908 29.61379616 -101.87472315 44.5555977 -101.86572266 59.86694336 C-101.47598647 77.16356853 -93.59460836 91.37643703 -81.4296875 103.375 C-69.94999537 113.60154835 -54.48767815 119.2751289 -39.140625 118.7578125 C-20.10217708 116.79384629 -5.95987693 109.43187117 6.671875 94.96875 C17.42250471 80.76086933 20.07933786 64.02079607 18.0703125 46.625 C15.3483062 31.933888 6.04879156 18.15919923 -5.6953125 9.2265625 C-30.9534959 -7.87683597 -62.85920067 -5.41447654 -84.4296875 16.375 Z " fill="#2B6D98" transform="translate(117.4296875,14.625)"/>
<path d="M0 0 C0.33 0 0.66 0 1 0 C0.9175 1.093125 0.835 2.18625 0.75 3.3125 C0.8325 4.529375 0.915 5.74625 1 7 C2.98 8.485 2.98 8.485 5 10 C5 27.49 5 44.98 5 63 C-44.83 63 -94.66 63 -146 63 C-146 46.17 -146 29.34 -146 12 C-142 9 -142 9 -140 9 C-139.67 7.68 -139.34 6.36 -139 5 C-138.64808594 5.96679688 -138.29617187 6.93359375 -137.93359375 7.9296875 C-134.87011462 16.10703899 -131.55146655 23.16123686 -126 30 C-125.36707031 30.81855469 -124.73414062 31.63710937 -124.08203125 32.48046875 C-114.17332471 44.47130499 -98.98159962 54.1341958 -83.34057617 55.82788086 C-78.43848685 56.1883662 -73.53840611 56.22654699 -68.625 56.25 C-67.5525 56.270625 -66.48 56.29125 -65.375 56.3125 C-47.3035606 56.40043888 -31.27184906 47.54340925 -18.28125 35.375 C-8.85578717 25.56218939 -2.95850054 13.18349364 0 0 Z " fill="#2D2D2D" transform="translate(146,87)"/>
<path d="M0 0 C0.66 0 1.32 0 2 0 C2.495 0.99 2.495 0.99 3 2 C4.98 2 6.96 2 9 2 C9.495 2.99 9.495 2.99 10 4 C11.65 3.67 13.3 3.34 15 3 C15.495 4.98 15.495 4.98 16 7 C17.65 6.67 19.3 6.34 21 6 C21 7.32 21 8.64 21 10 C20.34 10 19.68 10 19 10 C18.87723383 19.73944972 19.16220564 29.29056184 20 39 C19.01 39 18.02 39 17 39 C16.63470654 35.41770965 16.28470822 31.83408482 15.9375 28.25 C15.83373047 27.23421875 15.72996094 26.2184375 15.62304688 25.171875 C15.52958984 24.1921875 15.43613281 23.2125 15.33984375 22.203125 C15.20630493 20.85202637 15.20630493 20.85202637 15.07006836 19.47363281 C15.00235479 17.08313137 15.2931179 15.27129331 16 13 C15.34 13 14.68 13 14 13 C13.67 14.32 13.34 15.64 13 17 C12.195625 16.835 11.39125 16.67 10.5625 16.5 C8.2715557 15.96808161 8.2715557 15.96808161 7 16 C7.33 24.58 7.66 33.16 8 42 C5.525 42.495 5.525 42.495 3 43 C3.01160156 41.81921875 3.02320313 40.6384375 3.03515625 39.421875 C3.04453752 37.86458492 3.05363736 36.30729312 3.0625 34.75 C3.07506836 33.58404297 3.07506836 33.58404297 3.08789062 32.39453125 C3.09111328 31.64042969 3.09433594 30.88632813 3.09765625 30.109375 C3.10289307 29.41811523 3.10812988 28.72685547 3.11352539 28.01464844 C2.99419421 25.89696909 2.53239469 24.04811374 2 22 C1.96213099 20.33376361 1.95372155 18.66602403 2 17 C2.99 17 3.98 17 5 17 C5 16.34 5 15.68 5 15 C3.68 15 2.36 15 1 15 C1 12.36 1 9.72 1 7 C0.34 7 -0.32 7 -1 7 C-1.020625 8.19625 -1.04125 9.3925 -1.0625 10.625 C-1.07410156 11.29789063 -1.08570312 11.97078125 -1.09765625 12.6640625 C-1.04746223 15.08632516 -1.04746223 15.08632516 -0.51367188 17.78125 C-0.0270401 20.83056244 0.20037191 23.75273921 0.31640625 26.8359375 C0.35830078 27.89941406 0.40019531 28.96289062 0.44335938 30.05859375 C0.48267578 31.15300781 0.52199219 32.24742188 0.5625 33.375 C0.60568359 34.49261719 0.64886719 35.61023438 0.69335938 36.76171875 C0.79897411 39.50770199 0.9010797 42.25376881 1 45 C3.21081851 45.10540926 3.21081851 45.10540926 6 44 C7.40664926 43.85507877 8.8181133 43.75371069 10.23046875 43.68359375 C11.03291016 43.64169922 11.83535156 43.59980469 12.66210938 43.55664062 C13.49548828 43.51732422 14.32886719 43.47800781 15.1875 43.4375 C16.03248047 43.39431641 16.87746094 43.35113281 17.74804688 43.30664062 C19.83184433 43.20068482 21.91590103 43.0998498 24 43 C23.67 42.34 23.34 41.68 23 41 C22.76923077 35.46153846 22.76923077 35.46153846 24 33 C23.34 33 22.68 33 22 33 C21.66191314 30.93827387 21.32972639 28.8755797 21 26.8125 C20.814375 25.66394531 20.62875 24.51539062 20.4375 23.33203125 C20.06510523 20.49584607 19.91403979 17.85280436 20 15 C20.99 15 21.98 15 23 15 C23 15.66 23 16.32 23 17 C23.515625 16.79375 24.03125 16.5875 24.5625 16.375 C28.06506183 15.83614433 30.62748539 16.94954463 34 18 C36.99088262 18.70962024 39.99368679 19.35919854 43 20 C42.67 21.98 42.34 23.96 42 26 C41.505 25.01 41.505 25.01 41 24 C40.21625 24.185625 39.4325 24.37125 38.625 24.5625 C33.96066559 25.12543691 29.64022271 24.59607604 25 24 C26.65 24.33 28.3 24.66 30 25 C30.495 31.93 30.495 31.93 31 39 C31.66 39 32.32 39 33 39 C33.16677282 35.58343976 33.16677282 35.58343976 33 32 C32.34 31.34 31.68 30.68 31 30 C31 28.68 31 27.36 31 26 C34.63 26.33 38.26 26.66 42 27 C39.33297021 36.12404928 35.95118012 41.60574291 28.58203125 47.578125 C26.50729575 49.44282555 25.24084604 51.51830792 24 54 C24.99 53.34 25.98 52.68 27 52 C30.1875 51.875 30.1875 51.875 33 52 C31.54773858 55.82868919 29.66681987 57.2538953 26 59 C24.68 59 23.36 59 22 59 C21.505 59.99 21.505 59.99 21 61 C20.01 60.67 19.02 60.34 18 60 C17.67 58.35 17.34 56.7 17 55 C16.2575 55.2475 16.2575 55.2475 15.5 55.5 C11.96555911 56.20688818 8.60309299 56.06005155 5 56 C5 56.99 5 57.98 5 59 C6.093125 58.979375 7.18625 58.95875 8.3125 58.9375 C12 59 12 59 15 60 C12.50505051 68.25252525 12.50505051 68.25252525 10 71 C6.95873119 71.42750932 4.0503095 71.28776505 1 71 C1 69.68 1 68.36 1 67 C4.01031744 66.06576355 4.86650268 65.95550089 8 67 C8.495 65.515 8.495 65.515 9 64 C5.01600042 63.30903529 5.01600042 63.30903529 1 63 C0.34 63 -0.32 63 -1 63 C-0.67 61.68 -0.34 60.36 0 59 C0.66 59 1.32 59 2 59 C2 58.01 2 57.02 2 56 C-0.64 55.67 -3.28 55.34 -6 55 C-6 54.34 -6 53.68 -6 53 C-5.34 53 -4.68 53 -4 53 C-4 51.68 -4 50.36 -4 49 C-5.97536745 49.34786708 -5.97536745 49.34786708 -8 50 C-8.33 50.66 -8.66 51.32 -9 52 C-15.7685951 50.4770661 -20.28216093 46.08021761 -24.7578125 41.0078125 C-26.67128844 37.91496146 -25.72514136 35.42794095 -25 32 C-22.03 31.67 -19.06 31.34 -16 31 C-15.67 30.01 -15.34 29.02 -15 28 C-15.66 28 -16.32 28 -17 28 C-17 26.02 -17 24.04 -17 22 C-16.34 22 -15.68 22 -15 22 C-15 22.99 -15 23.98 -15 25 C-14.01 25 -13.02 25 -12 25 C-11.67 24.01 -11.34 23.02 -11 22 C-11 26.95 -11 31.9 -11 37 C-10.34 37 -9.68 37 -9 37 C-9.33 31.06 -9.66 25.12 -10 19 C-9.34 19 -8.68 19 -8 19 C-8 18.34 -8 17.68 -8 17 C-8.93972656 16.90912109 -8.93972656 16.90912109 -9.8984375 16.81640625 C-10.71570313 16.73261719 -11.53296875 16.64882812 -12.375 16.5625 C-13.18710937 16.48128906 -13.99921875 16.40007812 -14.8359375 16.31640625 C-17 16 -17 16 -19 15 C-19 20.28 -19 25.56 -19 31 C-19.33 30.01 -19.66 29.02 -20 28 C-21.32 28 -22.64 28 -24 28 C-24.33 28.66 -24.66 29.32 -25 30 C-25 27 -25 27 -23 25 C-22.01 25 -21.02 25 -20 25 C-20 24.01 -20 23.02 -20 22 C-21.65 22.33 -23.3 22.66 -25 23 C-25.91058531 19.92677456 -26.08886184 17.19902639 -26 14 C-26.99 14.495 -26.99 14.495 -28 15 C-27.67 15.33 -27.34 15.66 -27 16 C-26.95907063 18.33297433 -26.95758277 20.66705225 -27 23 C-27.33 22.01 -27.66 21.02 -28 20 C-29.32 20 -30.64 20 -32 20 C-32.40368295 13.54107286 -31.5915262 8.93891422 -29 3 C-28.01 3 -27.02 3 -26 3 C-25.67 3.66 -25.34 4.32 -25 5 C-23.9275 4.95875 -22.855 4.9175 -21.75 4.875 C-18.18223639 4.99392545 -16.96201283 5.32152606 -14 7 C-10.81812882 7.79546779 -8.32469828 8 -5 8 C-2.18731921 5.77069744 -2.18731921 5.77069744 0 3 C0 2.01 0 1.02 0 0 Z " fill="#B6A147" transform="translate(68,54)"/>
<path d="M0 0 C0.66 0 1.32 0 2 0 C2.495 0.99 2.495 0.99 3 2 C4.98 2 6.96 2 9 2 C9.495 2.99 9.495 2.99 10 4 C11.65 3.67 13.3 3.34 15 3 C15.495 4.98 15.495 4.98 16 7 C17.65 6.67 19.3 6.34 21 6 C21 7.32 21 8.64 21 10 C20.34 10 19.68 10 19 10 C18.87723383 19.73944972 19.16220564 29.29056184 20 39 C19.01 39 18.02 39 17 39 C16.63470654 35.41770965 16.28470822 31.83408482 15.9375 28.25 C15.83373047 27.23421875 15.72996094 26.2184375 15.62304688 25.171875 C15.52958984 24.1921875 15.43613281 23.2125 15.33984375 22.203125 C15.20630493 20.85202637 15.20630493 20.85202637 15.07006836 19.47363281 C15.00235479 17.08313137 15.2931179 15.27129331 16 13 C15.34 13 14.68 13 14 13 C13.67 14.32 13.34 15.64 13 17 C12.195625 16.835 11.39125 16.67 10.5625 16.5 C8.2715557 15.96808161 8.2715557 15.96808161 7 16 C7.33 24.58 7.66 33.16 8 42 C5.525 42.495 5.525 42.495 3 43 C3.01160156 41.81921875 3.02320313 40.6384375 3.03515625 39.421875 C3.04453752 37.86458492 3.05363736 36.30729312 3.0625 34.75 C3.07506836 33.58404297 3.07506836 33.58404297 3.08789062 32.39453125 C3.09111328 31.64042969 3.09433594 30.88632813 3.09765625 30.109375 C3.10289307 29.41811523 3.10812988 28.72685547 3.11352539 28.01464844 C2.99419421 25.89696909 2.53239469 24.04811374 2 22 C1.96213099 20.33376361 1.95372155 18.66602403 2 17 C2.99 17 3.98 17 5 17 C5 16.34 5 15.68 5 15 C3.68 15 2.36 15 1 15 C1 12.36 1 9.72 1 7 C0.34 7 -0.32 7 -1 7 C-1 9.31 -1 11.62 -1 14 C-2.32 13.67 -3.64 13.34 -5 13 C-5 12.34 -5 11.68 -5 11 C-5.66 11 -6.32 11 -7 11 C-7 11.66 -7 12.32 -7 13 C-8.0625 14.625 -8.0625 14.625 -10 16 C-16.13846154 16.43076923 -16.13846154 16.43076923 -19 15 C-19 20.28 -19 25.56 -19 31 C-19.33 30.01 -19.66 29.02 -20 28 C-21.32 28 -22.64 28 -24 28 C-24.33 28.66 -24.66 29.32 -25 30 C-25 27 -25 27 -23 25 C-22.01 25 -21.02 25 -20 25 C-20 24.01 -20 23.02 -20 22 C-21.65 22.33 -23.3 22.66 -25 23 C-25.91058531 19.92677456 -26.08886184 17.19902639 -26 14 C-26.99 14.495 -26.99 14.495 -28 15 C-27.67 15.33 -27.34 15.66 -27 16 C-26.95907063 18.33297433 -26.95758277 20.66705225 -27 23 C-27.33 22.01 -27.66 21.02 -28 20 C-29.32 20 -30.64 20 -32 20 C-32.40368295 13.54107286 -31.5915262 8.93891422 -29 3 C-28.01 3 -27.02 3 -26 3 C-25.67 3.66 -25.34 4.32 -25 5 C-23.9275 4.95875 -22.855 4.9175 -21.75 4.875 C-18.18223639 4.99392545 -16.96201283 5.32152606 -14 7 C-10.81812882 7.79546779 -8.32469828 8 -5 8 C-2.18731921 5.77069744 -2.18731921 5.77069744 0 3 C0 2.01 0 1.02 0 0 Z " fill="#B59F44" transform="translate(68,54)"/>
<path d="M0 0 C0.66 0 1.32 0 2 0 C2 2.64 2 5.28 2 8 C3.32 8 4.64 8 6 8 C6 8.66 6 9.32 6 10 C5.01 10 4.02 10 3 10 C3 11.65 3 13.3 3 15 C3.66 15.33 4.32 15.66 5 16 C4.34 16 3.68 16 3 16 C3.66 16.99 4.32 17.98 5 19 C4.9765625 22.35546875 4.9765625 22.35546875 4.625 26.1875 C4.45871094 28.09595703 4.45871094 28.09595703 4.2890625 30.04296875 C4.19367188 31.01878906 4.09828125 31.99460937 4 33 C4.66 33.33 5.32 33.66 6 34 C5.34 34 4.68 34 4 34 C4 34.66 4 35.32 4 36 C6.475 35.505 6.475 35.505 9 35 C8.90126587 33.84213989 8.90126587 33.84213989 8.80053711 32.66088867 C8.50647622 29.17026244 8.22187799 25.67892785 7.9375 22.1875 C7.83373047 20.97255859 7.72996094 19.75761719 7.62304688 18.50585938 C7.52958984 17.34248047 7.43613281 16.17910156 7.33984375 14.98046875 C7.25081787 13.90692139 7.16179199 12.83337402 7.07006836 11.72729492 C7 9 7 9 8 6 C8.33 6.99 8.66 7.98 9 9 C10.65 9.33 12.3 9.66 14 10 C14 8.02 14 6.04 14 4 C14.33 4.66 14.66 5.32 15 6 C15.99 5.67 16.98 5.34 18 5 C17.91621094 5.56847656 17.83242187 6.13695313 17.74609375 6.72265625 C17.08017186 11.77186143 17.21502503 15.94127245 18 21 C18.08959284 24.66832913 18.05970739 28.33131283 18 32 C18.99 32 19.98 32 21 32 C20.855625 31.0821875 20.71125 30.164375 20.5625 29.21875 C18.54674221 15.89235127 18.54674221 15.89235127 19 10 C19.66 9.34 20.32 8.68 21 8 C22.22899346 14.06815522 23.27560214 19.79895188 23 26 C23.66 26 24.32 26 25 26 C24.67 28.64 24.34 31.28 24 34 C24.66 34.33 25.32 34.66 26 35 C26.33 35.66 26.66 36.32 27 37 C19.41 37.33 11.82 37.66 4 38 C4 40.64 4 43.28 4 46 C3.67 46 3.34 46 3 46 C2.855625 44.865625 2.71125 43.73125 2.5625 42.5625 C2.38828522 39.19222799 2.38828522 39.19222799 1 38 C0.84126045 35.78312006 0.74866163 33.56144702 0.68359375 31.33984375 C0.66281265 30.67537735 0.64203156 30.01091095 0.62062073 29.3263092 C0.55506342 27.19681457 0.49621215 25.06719332 0.4375 22.9375 C0.39432061 21.49673153 0.35070651 20.05597601 0.30664062 18.61523438 C0.19937607 15.0769596 0.09812629 11.53854131 0 8 C-0.66 7.67 -1.32 7.34 -2 7 C-1.34 7 -0.68 7 0 7 C0 4.69 0 2.38 0 0 Z " fill="#BFBDB1" transform="translate(67,61)"/>
<path d="M0 0 C1.89575251 -0.02721176 3.79161979 -0.04649136 5.6875 -0.0625 C6.74324219 -0.07410156 7.79898438 -0.08570312 8.88671875 -0.09765625 C11.72410262 -0.00865425 14.2438919 0.35060162 17 1 C17 2.32 17 3.64 17 5 C17.66 5 18.32 5 19 5 C18.34 6.65 17.68 8.3 17 10 C17.99 9.34 18.98 8.68 20 8 C23.1875 7.875 23.1875 7.875 26 8 C24.54773858 11.82868919 22.66681987 13.2538953 19 15 C17.68 15 16.36 15 15 15 C14.67 15.66 14.34 16.32 14 17 C13.01 16.67 12.02 16.34 11 16 C10.67 14.35 10.34 12.7 10 11 C9.505 11.165 9.01 11.33 8.5 11.5 C4.96555911 12.20688818 1.60309299 12.06005155 -2 12 C-2 12.99 -2 13.98 -2 15 C-0.906875 14.979375 0.18625 14.95875 1.3125 14.9375 C5 15 5 15 8 16 C5.50505051 24.25252525 5.50505051 24.25252525 3 27 C-0.04126881 27.42750932 -2.9496905 27.28776505 -6 27 C-6 25.68 -6 24.36 -6 23 C-2.98968256 22.06576355 -2.13349732 21.95550089 1 23 C1.33 22.01 1.66 21.02 2 20 C-1.98399958 19.30903529 -1.98399958 19.30903529 -6 19 C-6.66 19 -7.32 19 -8 19 C-7.67 17.68 -7.34 16.36 -7 15 C-6.34 15 -5.68 15 -5 15 C-5 14.01 -5 13.02 -5 12 C-6.32 11.67 -7.64 11.34 -9 11 C-2.565 10.505 -2.565 10.505 4 10 C4 7.03 4 4.06 4 1 C2.68 0.67 1.36 0.34 0 0 Z " fill="#B29B3D" transform="translate(75,98)"/>
<path d="M0 0 C1.32 0 2.64 0 4 0 C4.33 2.31 4.66 4.62 5 7 C6.65 7.33 8.3 7.66 10 8 C10 8.99 10 9.98 10 11 C9.34 11.66 8.68 12.32 8 13 C7.01 13 6.02 13 5 13 C6.65 13.33 8.3 13.66 10 14 C10.33 9.71 10.66 5.42 11 1 C12.44375 1.144375 13.8875 1.28875 15.375 1.4375 C16.18710937 1.51871094 16.99921875 1.59992188 17.8359375 1.68359375 C20 2 20 2 22 3 C22 3.66 22 4.32 22 5 C21.34 5 20.68 5 20 5 C20.15597656 5.79664062 20.31195313 6.59328125 20.47265625 7.4140625 C20.76462891 9.00347656 20.76462891 9.00347656 21.0625 10.625 C21.35833984 12.19121094 21.35833984 12.19121094 21.66015625 13.7890625 C22.01108946 17.10477629 21.6969615 19.75401145 21 23 C20.34 23 19.68 23 19 23 C18.03929566 20.11788698 17.89418117 18.30149956 17.9375 15.3125 C17.94652344 14.50425781 17.95554687 13.69601563 17.96484375 12.86328125 C17.97644531 12.24839844 17.98804687 11.63351563 18 11 C17.01 11 16.02 11 15 11 C15 10.01 15 9.02 15 8 C14.34 8 13.68 8 13 8 C13 9.98 13 11.96 13 14 C13.66 14 14.32 14 15 14 C15 15.65 15 17.3 15 19 C14.34 18.67 13.68 18.34 13 18 C11.515 18.2475 11.515 18.2475 10 18.5 C7 19 7 19 5 18 C4.67 19.98 4.34 21.96 4 24 C2 23 2 23 1.3671875 21.15234375 C1.20476563 20.42144531 1.04234375 19.69054687 0.875 18.9375 C0.70742188 18.20402344 0.53984375 17.47054687 0.3671875 16.71484375 C0.24601562 16.14894531 0.12484375 15.58304688 0 15 C0.66 15 1.32 15 2 15 C2 14.34 2 13.68 2 13 C1.01 13 0.02 13 -1 13 C-1.33 11.35 -1.66 9.7 -2 8 C-1.01 8 -0.02 8 1 8 C1.67801034 5.09926819 1.67801034 5.09926819 2 2 C1.34 1.34 0.68 0.68 0 0 Z " fill="#D4C78B" transform="translate(38,68)"/>
<path d="M0 0 C1.66190452 3.05072615 2.80899918 6.20630239 3.95166016 9.48144531 C10.7930567 28.82984083 22.63819407 42.05672041 41 51 C56.0395332 58.11501996 73.81057952 59.65286876 89.75 54.55859375 C92 54 92 54 95 55 C94.37351562 55.20496094 93.74703125 55.40992188 93.1015625 55.62109375 C92.28429687 55.89050781 91.46703125 56.15992188 90.625 56.4375 C89.81289062 56.70433594 89.00078125 56.97117188 88.1640625 57.24609375 C85.98968201 57.95179729 85.98968201 57.95179729 84 59 C80.02627873 59.24590371 76.04295905 59.18522155 72.0625 59.1875 C70.97130859 59.19974609 69.88011719 59.21199219 68.75585938 59.22460938 C48.67695383 59.26044323 32.59729726 52.2526557 18.0625 38.5 C9.59931239 29.37761938 0.28666489 15.88661162 -0.125 3.125 C-0.08375 2.09375 -0.0425 1.0625 0 0 Z " fill="#7C8083" transform="translate(6,85)"/>
<path d="M0 0 C0.66 0.33 1.32 0.66 2 1 C1.54625 1.886875 1.0925 2.77375 0.625 3.6875 C-0.98974774 6.79415444 -0.98974774 6.79415444 -1.80078125 9.390625 C-3.29669913 12.64558639 -5.2460243 14.57298009 -7.8125 17.0625 C-9.09060547 18.31740234 -9.09060547 18.31740234 -10.39453125 19.59765625 C-15.56449468 24.36456406 -15.56449468 24.36456406 -18 26 C-19.34006692 25.69486142 -20.6743672 25.36274861 -22 25 C-24.12751268 26.45259301 -24.12751268 26.45259301 -26.0625 28.5 C-28.09765625 30.53125 -28.09765625 30.53125 -30 32 C-30.99 31.67 -31.98 31.34 -33 31 C-33 29.68 -33 28.36 -33 27 C-32.20078125 26.62230469 -31.4015625 26.24460938 -30.578125 25.85546875 C-19.15287507 20.12943387 -10.09800489 12.76149128 -3 2 C-2.01 1.34 -1.02 0.68 0 0 Z " fill="#1C4E6F" transform="translate(130,102)"/>
<path d="M0 0 C0.66 0 1.32 0 2 0 C2 2.64 2 5.28 2 8 C3.32 8 4.64 8 6 8 C6 8.66 6 9.32 6 10 C5.01 10 4.02 10 3 10 C3 11.65 3 13.3 3 15 C3.66 15.33 4.32 15.66 5 16 C4.34 16 3.68 16 3 16 C3.66 16.99 4.32 17.98 5 19 C4.9765625 22.35546875 4.9765625 22.35546875 4.625 26.1875 C4.45871094 28.09595703 4.45871094 28.09595703 4.2890625 30.04296875 C4.19367188 31.01878906 4.09828125 31.99460937 4 33 C4.66 33.33 5.32 33.66 6 34 C5.34 34 4.68 34 4 34 C4 34.66 4 35.32 4 36 C6.475 35.505 6.475 35.505 9 35 C8.90126587 33.84213989 8.90126587 33.84213989 8.80053711 32.66088867 C8.50647622 29.17026244 8.22187799 25.67892785 7.9375 22.1875 C7.83373047 20.97255859 7.72996094 19.75761719 7.62304688 18.50585938 C7.52958984 17.34248047 7.43613281 16.17910156 7.33984375 14.98046875 C7.25081787 13.90692139 7.16179199 12.83337402 7.07006836 11.72729492 C7 9 7 9 8 6 C8.33 6 8.66 6 9 6 C10.17837674 15.65582492 11.28948448 25.29585386 12 35 C12.99 35.33 13.98 35.66 15 36 C15 36.33 15 36.66 15 37 C9.555 37.495 9.555 37.495 4 38 C4 40.64 4 43.28 4 46 C3.67 46 3.34 46 3 46 C2.855625 44.865625 2.71125 43.73125 2.5625 42.5625 C2.38828522 39.19222799 2.38828522 39.19222799 1 38 C0.84126045 35.78312006 0.74866163 33.56144702 0.68359375 31.33984375 C0.66281265 30.67537735 0.64203156 30.01091095 0.62062073 29.3263092 C0.55506342 27.19681457 0.49621215 25.06719332 0.4375 22.9375 C0.39432061 21.49673153 0.35070651 20.05597601 0.30664062 18.61523438 C0.19937607 15.0769596 0.09812629 11.53854131 0 8 C-0.66 7.67 -1.32 7.34 -2 7 C-1.34 7 -0.68 7 0 7 C0 4.69 0 2.38 0 0 Z " fill="#E9E2C3" transform="translate(67,61)"/>
<path d="M0 0 C0.99 0 1.98 0 3 0 C4 3 4 3 2.9609375 5.0859375 C-0.06879197 9.45889678 -3.06131158 13.38066469 -7 17 C-7.53625 17.598125 -8.0725 18.19625 -8.625 18.8125 C-10 20 -10 20 -13 20 C-13 20.66 -13 21.32 -13 22 C-14.57533086 22.86883706 -16.16064509 23.71959068 -17.75 24.5625 C-18.63171875 25.03816406 -19.5134375 25.51382813 -20.421875 26.00390625 C-23.20701188 27.07998186 -24.26980214 27.06528748 -27 26 C-27.66 26.99 -28.32 27.98 -29 29 C-29.99 29 -30.98 29 -32 29 C-31.75 26.125 -31.75 26.125 -31 23 C-28.07502205 20.70180304 -25.58868165 21 -22 21 C-19.98177598 20.39072482 -17.97583715 19.73519522 -16 19 C-16 18.34 -16 17.68 -16 17 C-15.21625 16.938125 -14.4325 16.87625 -13.625 16.8125 C-12.75875 16.544375 -11.8925 16.27625 -11 16 C-9.62533375 13.52363988 -9.62533375 13.52363988 -9 11 C-8.01 11 -7.02 11 -6 11 C-5.7525 10.29875 -5.505 9.5975 -5.25 8.875 C-3.82049359 5.58713526 -2.18301951 2.84454057 0 0 Z " fill="#B0A278" transform="translate(116,95)"/>
<path d="M0 0 C4.95 0 9.9 0 15 0 C15 0.33 15 0.66 15 1 C12.36 1 9.72 1 7 1 C7 1.99 7 2.98 7 4 C8.093125 3.979375 9.18625 3.95875 10.3125 3.9375 C14 4 14 4 17 5 C14.50505051 13.25252525 14.50505051 13.25252525 12 16 C8.95873119 16.42750932 6.0503095 16.28776505 3 16 C3 14.68 3 13.36 3 12 C6.01031744 11.06576355 6.86650268 10.95550089 10 12 C10.33 11.01 10.66 10.02 11 9 C7.01600042 8.30903529 7.01600042 8.30903529 3 8 C2.34 8 1.68 8 1 8 C1.33 6.68 1.66 5.36 2 4 C2.66 4 3.32 4 4 4 C4 3.01 4 2.02 4 1 C2.68 0.67 1.36 0.34 0 0 Z " fill="#B1A684" transform="translate(66,109)"/>
<path d="M0 0 C0.66 0.33 1.32 0.66 2 1 C2 1.66 2 2.32 2 3 C2.515625 2.79375 3.03125 2.5875 3.5625 2.375 C7.06506183 1.83614433 9.62748539 2.94954463 13 4 C15.99088262 4.70962024 18.99368679 5.35919854 22 6 C21.67 7.98 21.34 9.96 21 12 C20.67 11.34 20.34 10.68 20 10 C18.74316406 10.29197266 18.74316406 10.29197266 17.4609375 10.58984375 C13.47439665 11.06228934 10.52205203 10.48161604 6.625 9.5625 C4.75714844 9.13130859 4.75714844 9.13130859 2.8515625 8.69140625 C1.91054687 8.46324219 0.96953125 8.23507813 0 8 C-0.38063221 5.6739143 -0.71269945 3.33944736 -1 1 C-0.67 0.67 -0.34 0.34 0 0 Z " fill="#B39C40" transform="translate(89,68)"/>
<path d="M0 0 C1.32 0 2.64 0 4 0 C4.33 2.31 4.66 4.62 5 7 C6.65 7.33 8.3 7.66 10 8 C10 8.99 10 9.98 10 11 C9.34 11.66 8.68 12.32 8 13 C7.01 13 6.02 13 5 13 C6.65 13.33 8.3 13.66 10 14 C10.33 15.32 10.66 16.64 11 18 C7.25 19.125 7.25 19.125 5 18 C4.67 19.98 4.34 21.96 4 24 C2 23 2 23 1.3671875 21.15234375 C1.20476563 20.42144531 1.04234375 19.69054687 0.875 18.9375 C0.70742188 18.20402344 0.53984375 17.47054687 0.3671875 16.71484375 C0.24601562 16.14894531 0.12484375 15.58304688 0 15 C0.66 15 1.32 15 2 15 C2 14.34 2 13.68 2 13 C1.01 13 0.02 13 -1 13 C-1.33 11.35 -1.66 9.7 -2 8 C-1.01 8 -0.02 8 1 8 C1.67801034 5.09926819 1.67801034 5.09926819 2 2 C1.34 1.34 0.68 0.68 0 0 Z " fill="#CEC393" transform="translate(38,68)"/>
<path d="M0 0 C1.32 0.33 2.64 0.66 4 1 C4 1.99 4 2.98 4 4 C4.66 4 5.32 4 6 4 C6.72415282 7.9590197 7.15536328 11.77943714 7.28125 15.80078125 C7.31863281 16.85974609 7.35601562 17.91871094 7.39453125 19.00976562 C7.46546682 21.23109998 7.53576848 23.45245466 7.60546875 25.67382812 C7.64285156 26.72634766 7.68023437 27.77886719 7.71875 28.86328125 C7.74904297 29.82532471 7.77933594 30.78736816 7.81054688 31.77856445 C7.7572799 33.97210069 7.7572799 33.97210069 9 35 C9.04092937 37.33297433 9.04241723 39.66705225 9 42 C8.67 40.68 8.34 39.36 8 38 C7.34 38 6.68 38 6 38 C4.39330921 31.73756817 3.64966359 25.76537789 3.4375 19.3125 C3.24471317 14.12366297 2.99940844 9.11267623 2 4 C0.35 4.33 -1.3 4.66 -3 5 C-2.67 4.01 -2.34 3.02 -2 2 C-1.34 2 -0.68 2 0 2 C0 1.34 0 0.68 0 0 Z " fill="#CFC182" transform="translate(61,65)"/>
<path d="M0 0 C8.25 0 16.5 0 25 0 C19.70768463 5.29231537 17.62891722 6.61118744 10.5 7.375 C6.29115744 6.92405258 4.22911608 5.69093006 1 3 C0.67 2.01 0.34 1.02 0 0 Z " fill="#194765" transform="translate(64,132)"/>
<path d="M0 0 C1.98 0 3.96 0 6 0 C5.67 1.65 5.34 3.3 5 5 C6.65 5.33 8.3 5.66 10 6 C10 6.99 10 7.98 10 9 C10.99 9 11.98 9 13 9 C13.2475 9.61875 13.495 10.2375 13.75 10.875 C15.22221442 13.37776452 16.31748828 13.9940581 19 15 C19.66 15 20.32 15 21 15 C20.25 16.9375 20.25 16.9375 19 19 C16.875 19.75 16.875 19.75 15 20 C15 19.34 15 18.68 15 18 C14.01 17.67 13.02 17.34 12 17 C12 16.34 12 15.68 12 15 C11.01 15 10.02 15 9 15 C9 14.34 9 13.68 9 13 C8.01 12.67 7.02 12.34 6 12 C6 11.34 6 10.68 6 10 C5.34 9.67 4.68 9.34 4 9 C4 8.01 4 7.02 4 6 C3.34 6 2.68 6 2 6 C2 4.68 2 3.36 2 2 C1.34 2 0.68 2 0 2 C0 1.34 0 0.68 0 0 Z " fill="#B3A475" transform="translate(26,96)"/>
<path d="M0 0 C0.53625 0.53625 1.0725 1.0725 1.625 1.625 C4.03947071 3.39067945 4.03947071 3.39067945 7.25 2.1875 C8.1575 1.795625 9.065 1.40375 10 1 C9.34 2.32 8.68 3.64 8 5 C8.99 4.34 9.98 3.68 11 3 C14.1875 2.875 14.1875 2.875 17 3 C15.54773858 6.82868919 13.66681987 8.2538953 10 10 C8.68 10 7.36 10 6 10 C5.67 10.66 5.34 11.32 5 12 C4.01 11.67 3.02 11.34 2 11 C0.60955102 7.12137916 0 4.13537997 0 0 Z " fill="#BBB6A2" transform="translate(84,103)"/>
<path d="M0 0 C6.01701426 9.02552139 4.09137112 25.98313808 2.68359375 36.32421875 C1.89830695 40.08292158 0.59729727 43.51924472 -1 47 C-1.38542969 47.89332031 -1.77085937 48.78664062 -2.16796875 49.70703125 C-4.67751664 55.12408122 -7.6962934 60.79036349 -12 65 C-12.99 65 -13.98 65 -15 65 C-14.63648438 64.56171875 -14.27296875 64.1234375 -13.8984375 63.671875 C-5.56950854 53.16461077 1.11443891 39.66982368 1.1328125 26.015625 C1.13410156 25.07976562 1.13539063 24.14390625 1.13671875 23.1796875 C1.13091797 21.72949219 1.13091797 21.72949219 1.125 20.25 C1.12886719 19.29867187 1.13273437 18.34734375 1.13671875 17.3671875 C1.12867919 11.49831115 0.75450635 5.82047757 0 0 Z " fill="#D2D6D9" transform="translate(144,53)"/>
<path d="M0 0 C1.32 0.33 2.64 0.66 4 1 C3.43769689 4.37381867 2.63402623 7.00428524 1 10 C0.505 11.010625 0.01 12.02125 -0.5 13.0625 C-2 16 -2 16 -4 19 C-5.32 18.67 -6.64 18.34 -8 18 C-7.67 19.32 -7.34 20.64 -7 22 C-8.98 22.99 -8.98 22.99 -11 24 C-11.66 23.01 -12.32 22.02 -13 21 C-11.37660195 19.29115995 -9.70680947 17.62553283 -8 16 C-7.34 16 -6.68 16 -6 16 C-5.67 14.35 -5.34 12.7 -5 11 C-4.34 11 -3.68 11 -3 11 C-3 10.34 -3 9.68 -3 9 C-2.34 9 -1.68 9 -1 9 C-1.33 8.01 -1.66 7.02 -2 6 C-1.0625 2.8125 -1.0625 2.8125 0 0 Z " fill="#BDAE81" transform="translate(113,82)"/>
<path d="M0 0 C1.32 0 2.64 0 4 0 C5.7581759 3.5163518 5.43084565 7.55726829 5.625 11.4375 C5.6765625 12.30955078 5.728125 13.18160156 5.78125 14.08007812 C5.82507813 14.91861328 5.86890625 15.75714844 5.9140625 16.62109375 C5.9548291 17.3886499 5.9955957 18.15620605 6.03759766 18.94702148 C6 21 6 21 5 24 C4.34 24 3.68 24 3 24 C1.24376685 18.62421315 0.60683126 13.69889745 0.375 8.0625 C0.33632812 7.28326172 0.29765625 6.50402344 0.2578125 5.70117188 C0.16455873 3.80112621 0.08124038 1.90059722 0 0 Z " fill="#BFAC5B" transform="translate(76,72)"/>
<path d="M0 0 C3.45073325 2.92986785 6.79810715 5.79810715 10 9 C10.33 6.03 10.66 3.06 11 0 C11.66 0 12.32 0 13 0 C13 4.95 13 9.9 13 15 C8.64856384 13.91214096 7.9792886 13.24413811 5.25 9.9375 C4.63640625 9.20402344 4.0228125 8.47054687 3.390625 7.71484375 C2.93171875 7.14894531 2.4728125 6.58304688 2 6 C1.67 8.97 1.34 11.94 1 15 C0.34 14.67 -0.32 14.34 -1 14 C-0.67 9.38 -0.34 4.76 0 0 Z " fill="#BD981C" transform="translate(78,31)"/>
<path d="M0 0 C0.66 0 1.32 0 2 0 C4.29612756 15.74487472 4.29612756 15.74487472 4 23 C2.35 23.33 0.7 23.66 -1 24 C-0.98839844 22.80761719 -0.97679688 21.61523438 -0.96484375 20.38671875 C-0.95546408 18.82031406 -0.94636407 17.25390769 -0.9375 15.6875 C-0.92912109 14.90181641 -0.92074219 14.11613281 -0.91210938 13.30664062 C-0.90888672 12.54931641 -0.90566406 11.79199219 -0.90234375 11.01171875 C-0.89710693 10.31522217 -0.89187012 9.61872559 -0.88647461 8.90112305 C-0.93104009 6.77502032 -0.93104009 6.77502032 -2 4 C-1.34 4 -0.68 4 0 4 C0 2.68 0 1.36 0 0 Z " fill="#B29A3B" transform="translate(72,73)"/>
<path d="M0 0 C0.66 0 1.32 0 2 0 C2 2.64 2 5.28 2 8 C3.32 8 4.64 8 6 8 C6 8.66 6 9.32 6 10 C5.01 10 4.02 10 3 10 C3 11.65 3 13.3 3 15 C3.66 15.33 4.32 15.66 5 16 C4.34 16 3.68 16 3 16 C3 22.6 3 29.2 3 36 C2.67 36 2.34 36 2 36 C0.83010551 30.23900697 0.66795959 24.4809405 0.4375 18.625 C0.37272461 17.09166016 0.37272461 17.09166016 0.30664062 15.52734375 C0.20112208 13.01834712 0.09900787 10.50926057 0 8 C-0.66 7.67 -1.32 7.34 -2 7 C-1.34 7 -0.68 7 0 7 C0 4.69 0 2.38 0 0 Z " fill="#F8F5EB" transform="translate(67,61)"/>
<path d="M0 0 C0 2.97 0 5.94 0 9 C-2.8125 9.625 -2.8125 9.625 -6 10 C-6.99 9.34 -7.98 8.68 -9 8 C-8.67 5.36 -8.34 2.72 -8 0 C-4.71023192 -1.09658936 -3.28696233 -0.79953138 0 0 Z " fill="#BAA54F" transform="translate(79,99)"/>
<path d="M0 0 C3.63 0.33 7.26 0.66 11 1 C8.25 9.625 8.25 9.625 6 13 C5.34 13 4.68 13 4 13 C3.67 10.03 3.34 7.06 3 4 C2.01 4 1.02 4 0 4 C0 2.68 0 1.36 0 0 Z " fill="#BEAB5B" transform="translate(99,80)"/>
<path d="M0 0 C0.66 0 1.32 0 2 0 C2 0.99 2 1.98 2 3 C2.99 3 3.98 3 5 3 C5.33 2.01 5.66 1.02 6 0 C6 3.63 6 7.26 6 11 C5.01 11.33 4.02 11.66 3 12 C2.26676204 14.01508358 2.26676204 14.01508358 2 16 C0.68 16.33 -0.64 16.66 -2 17 C-1.625 14.5625 -1.625 14.5625 -1 12 C-0.34 11.67 0.32 11.34 1 11 C1.65555119 8.47266765 1.65555119 8.47266765 2 6 C1.34 6 0.68 6 0 6 C0 4.02 0 2.04 0 0 Z " fill="#C2B061" transform="translate(51,76)"/>
<path d="M0 0 C6.11485027 -0.09706112 11.93303301 0.22959149 18 1 C18 1.99 18 2.98 18 4 C15.03 3.67 12.06 3.34 9 3 C9.62841973 6.9714169 9.62841973 6.9714169 12 9 C11.625 12.625 11.625 12.625 11 16 C10.34 16 9.68 16 9 16 C8.04738513 11.23692563 7.91666643 6.8333472 8 2 C5.36 1.67 2.72 1.34 0 1 C0 0.67 0 0.34 0 0 Z " fill="#D1CAA8" transform="translate(90,77)"/>
<path d="M0 0 C1.32 0 2.64 0 4 0 C4 4.95 4 9.9 4 15 C2.68 15 1.36 15 0 15 C0 10.05 0 5.1 0 0 Z " fill="#C2A235" transform="translate(106,31)"/>
<path d="M0 0 C2.64 0 5.28 0 8 0 C8 0.66 8 1.32 8 2 C6.35 2 4.7 2 3 2 C3 3.65 3 5.3 3 7 C4.65 7 6.3 7 8 7 C8 7.33 8 7.66 8 8 C6.35 8 4.7 8 3 8 C3 10.31 3 12.62 3 15 C2.01 15 1.02 15 0 15 C0 10.05 0 5.1 0 0 Z " fill="#B9920E" transform="translate(95,31)"/>
<path d="M0 0 C3.76833726 3.20308667 5.81790294 7.63580589 8 12 C7.67 12.99 7.34 13.98 7 15 C6.34 15 5.68 15 5 15 C3.68 12.36 2.36 9.72 1 7 C0.67 9.64 0.34 12.28 0 15 C-0.66 15 -1.32 15 -2 15 C-1.85879286 13.06215735 -1.71187127 11.12473045 -1.5625 9.1875 C-1.48128906 8.10855469 -1.40007813 7.02960937 -1.31640625 5.91796875 C-1 3 -1 3 0 0 Z " fill="#BB9517" transform="translate(51,31)"/>
<path d="M0 0 C0.99 0.33 1.98 0.66 3 1 C-2.12095301 6.57878656 -7.72359476 10.7983533 -14 15 C-15.051875 15.78375 -16.10375 16.5675 -17.1875 17.375 C-20.48778886 19.28183356 -23.22751691 19.69820135 -27 20 C-24.08299161 17.68815186 -21.11971868 15.94894639 -17.8125 14.25 C-10.94434649 10.55388526 -4.51898193 6.46779288 0 0 Z " fill="#91999F" transform="translate(128,119)"/>
<path d="M0 0 C4.455 0.99 4.455 0.99 9 2 C9 2.66 9 3.32 9 4 C10.32 4 11.64 4 13 4 C13 4.66 13 5.32 13 6 C7.375 8.125 7.375 8.125 4 7 C3.67 6.34 3.34 5.68 3 5 C0.47266765 4.34444881 0.47266765 4.34444881 -2 4 C-1.34 2.68 -0.68 1.36 0 0 Z " fill="#B09E6A" transform="translate(46,114)"/>
<path d="M0 0 C1.67989866 3.08245556 2.84055524 6.27945269 4.00561523 9.58520508 C6.3184253 16.11705404 8.67389235 21.7869955 12.99609375 27.30078125 C13.49302734 28.14189453 13.49302734 28.14189453 14 29 C13.67 29.99 13.34 30.98 13 32 C5.76377171 22.90119223 -0.62832668 11.93820691 0 0 Z " fill="#BFC4C6" transform="translate(6,85)"/>
<path d="M0 0 C0.99 0.33 1.98 0.66 3 1 C3 7.6 3 14.2 3 21 C1.35 21.33 -0.3 21.66 -2 22 C-2 20.68 -2 19.36 -2 18 C-3.65 18 -5.3 18 -7 18 C-7 17.67 -7 17.34 -7 17 C-3.535 16.505 -3.535 16.505 0 16 C0 10.72 0 5.44 0 0 Z " fill="#BEAD60" transform="translate(94,81)"/>
<path d="M0 0 C2 2 2 2 2.01171875 4.2421875 C1.90472656 5.11101562 1.79773438 5.97984375 1.6875 6.875 C1.58824219 7.73867187 1.48898438 8.60234375 1.38671875 9.4921875 C0.59630107 14.61792638 -0.88122085 17.74711934 -4 22 C-4.66 22.33 -5.32 22.66 -6 23 C-5.81824219 22.34515625 -5.63648438 21.6903125 -5.44921875 21.015625 C-3.52672958 14.03551046 -1.72994005 7.0301819 0 0 Z " fill="#306589" transform="translate(136,77)"/>
<path d="M0 0 C0.33 0.66 0.66 1.32 1 2 C1.99 1.67 2.98 1.34 4 1 C3.71749338 3.58463502 3.4243774 6.16731135 3.125 8.75 C3.00705078 9.84441406 3.00705078 9.84441406 2.88671875 10.9609375 C2.42432884 14.87346748 1.79039542 17.41920916 0 21 C-0.33 16.38 -0.66 11.76 -1 7 C-2.32 7 -3.64 7 -5 7 C-5 6.34 -5 5.68 -5 5 C-2.525 5.495 -2.525 5.495 0 6 C0 4.02 0 2.04 0 0 Z " fill="#CECCBF" transform="translate(81,65)"/>
<path d="M0 0 C0.33 0.66 0.66 1.32 1 2 C1.99 1.67 2.98 1.34 4 1 C6.2265625 1.48828125 6.2265625 1.48828125 8.625 2.3125 C9.42164063 2.57675781 10.21828125 2.84101562 11.0390625 3.11328125 C13 4 13 4 14 6 C13.01 6.99 12.02 7.98 11 9 C10.01 8.34 9.02 7.68 8 7 C8 6.01 8 5.02 8 4 C7.34 4 6.68 4 6 4 C6 4.66 6 5.32 6 6 C4.02 5.34 2.04 4.68 0 4 C0 2.68 0 1.36 0 0 Z " fill="#B5A678" transform="translate(50,108)"/>
<path d="M0 0 C0.66 0.33 1.32 0.66 2 1 C-1.0369915 4.81793217 -3.88045733 8.28977456 -8 11 C-8.99 10.67 -9.98 10.34 -11 10 C-11 8.68 -11 7.36 -11 6 C-9.21385682 4.96953278 -7.42089982 3.95086764 -5.625 2.9375 C-4.62726563 2.36902344 -3.62953125 1.80054687 -2.6015625 1.21484375 C-1.74304688 0.81394531 -0.88453125 0.41304688 0 0 Z " fill="#1B4967" transform="translate(108,123)"/>
<path d="M0 0 C14.05889213 11.96501458 14.05889213 11.96501458 20 18 C11.73475716 15.41711161 4.97591892 8.90408751 0 2 C0 1.34 0 0.68 0 0 Z " fill="#959DA3" transform="translate(20,116)"/>
<path d="M0 0 C4.95 0 9.9 0 15 0 C15 0.33 15 0.66 15 1 C12.36 1 9.72 1 7 1 C7 1.99 7 2.98 7 4 C7.99 4 8.98 4 10 4 C9.67 4.66 9.34 5.32 9 6 C8.34 5.67 7.68 5.34 7 5 C7.33 5.99 7.66 6.98 8 8 C5.66666667 8 3.33333333 8 1 8 C1.33 6.68 1.66 5.36 2 4 C2.66 4 3.32 4 4 4 C4 3.01 4 2.02 4 1 C2.68 0.67 1.36 0.34 0 0 Z " fill="#B6A97E" transform="translate(66,109)"/>
<path d="M0 0 C0.99 0 1.98 0 3 0 C4 3 4 3 3.00390625 5.04296875 C2.52824219 5.75066406 2.05257812 6.45835938 1.5625 7.1875 C1.08941406 7.90292969 0.61632812 8.61835937 0.12890625 9.35546875 C-0.42990234 10.16951172 -0.42990234 10.16951172 -1 11 C-2.32 10.34 -3.64 9.68 -5 9 C-3.49901406 5.88256767 -1.97568178 2.84498177 0 0 Z " fill="#BBB192" transform="translate(116,95)"/>
<path d="M0 0 C0.33 0 0.66 0 1 0 C2.35067975 10.06979989 3.31860272 19.82241303 3 30 C2.34 30 1.68 30 1 30 C0.6359523 25.56325219 0.28544929 21.12553703 -0.0625 16.6875 C-0.2181543 14.79354492 -0.2181543 14.79354492 -0.37695312 12.86132812 C-0.47041016 11.65283203 -0.56386719 10.44433594 -0.66015625 9.19921875 C-0.74918213 8.08377686 -0.83820801 6.96833496 -0.92993164 5.8190918 C-1 3 -1 3 0 0 Z " fill="#F9F7EF" transform="translate(75,67)"/>
<path d="M0 0 C0.66 0 1.32 0 2 0 C3.23615622 5.09914442 3.67479795 9.97560615 2 15 C1.34 15 0.68 15 0 15 C-1.16968953 12.66062093 -1.13364221 11.22630632 -1.125 8.625 C-1.12886719 7.46871094 -1.12886719 7.46871094 -1.1328125 6.2890625 C-1.00389788 4.0671811 -0.61383717 2.13381492 0 0 Z " fill="#B59F43" transform="translate(79,81)"/>
<path d="M0 0 C0.66 0 1.32 0 2 0 C2.66 4.95 3.32 9.9 4 15 C2.68 15 1.36 15 0 15 C0 12.03 0 9.06 0 6 C-0.66 6 -1.32 6 -2 6 C-1.34 4.02 -0.68 2.04 0 0 Z " fill="#B9920D" transform="translate(63,31)"/>
<path d="M0 0 C0.99 0 1.98 0 3 0 C3 4.95 3 9.9 3 15 C2.01 15 1.02 15 0 15 C0 10.05 0 5.1 0 0 Z " fill="#B89005" transform="translate(70,31)"/>
<path d="M0 0 C0.33 0 0.66 0 1 0 C2.0712828 6.02596573 2.09945415 11.88909517 2 18 C0.02 18.99 0.02 18.99 -2 20 C-1.34 13.4 -0.68 6.8 0 0 Z " fill="#C0BBA3" transform="translate(83,75)"/>
<path d="M0 0 C0.66 0.33 1.32 0.66 2 1 C1.67 1.66 1.34 2.32 1 3 C3.475 3.99 3.475 3.99 6 5 C5.67 6.32 5.34 7.64 5 9 C3.02 8.34 1.04 7.68 -1 7 C-1 6.34 -1 5.68 -1 5 C-1.66 5 -2.32 5 -3 5 C-1.125 1.125 -1.125 1.125 0 0 Z " fill="#B6A676" transform="translate(43,100)"/>
<path d="M0 0 C2.00720923 0.28674418 4.0085944 0.61866701 6 1 C6 4.63 6 8.26 6 12 C5.67 11.01 5.34 10.02 5 9 C3.68 9 2.36 9 1 9 C0.67 9.66 0.34 10.32 0 11 C0 8 0 8 2 6 C2.99 6 3.98 6 5 6 C5 5.01 5 4.02 5 3 C3.35 3.33 1.7 3.66 0 4 C-0.33 3.01 -0.66 2.02 -1 1 C-0.67 0.67 -0.34 0.34 0 0 Z " fill="#B5A044" transform="translate(43,73)"/>
<path d="M0 0 C0.99 -0.33 1.98 -0.66 3 -1 C2.67 0.65 2.34 2.3 2 4 C-0.97 4 -3.94 4 -7 4 C-7 2.68 -7 1.36 -7 0 C-3.75370153 -1.08209949 -3.12563502 -0.78140875 0 0 Z " fill="#B09F6C" transform="translate(76,121)"/>
<path d="M0 0 C0.99 0.33 1.98 0.66 3 1 C2.67 2.32 2.34 3.64 2 5 C0.68 4.67 -0.64 4.34 -2 4 C-1.67 5.32 -1.34 6.64 -1 8 C-2.98 8.99 -2.98 8.99 -5 10 C-5.66 9.01 -6.32 8.02 -7 7 C-5.37660195 5.29115995 -3.70680947 3.62553283 -2 2 C-1.34 2 -0.68 2 0 2 C0 1.34 0 0.68 0 0 Z " fill="#B5A164" transform="translate(107,96)"/>
<path d="M0 0 C3.125 -0.1875 3.125 -0.1875 6 0 C4.549046 3.82524236 2.61818068 5.19090966 -1 7 C-1.66 7 -2.32 7 -3 7 C-3.33 5.68 -3.66 4.36 -4 3 C-3.34 3 -2.68 3 -2 3 C-1.34 2.01 -0.68 1.02 0 0 Z " fill="#B4A371" transform="translate(95,106)"/>
<path d="M0 0 C0.99 0 1.98 0 3 0 C3 1.32 3 2.64 3 4 C3.66 4.66 4.32 5.32 5 6 C5 6.99 5 7.98 5 9 C3.68 9.33 2.36 9.66 1 10 C-0.625 6.6875 -0.625 6.6875 -2 3 C-1.34 2.01 -0.68 1.02 0 0 Z " fill="#B7A671" transform="translate(36,92)"/>
<path d="M0 0 C0.66 0.33 1.32 0.66 2 1 C2 3.64 2 6.28 2 9 C0.35 9.33 -1.3 9.66 -3 10 C-3 7.69 -3 5.38 -3 3 C-2.34 3 -1.68 3 -1 3 C-0.67 2.01 -0.34 1.02 0 0 Z " fill="#BFAC5A" transform="translate(74,87)"/>
<path d="M0 0 C-1.3881735 3.12857014 -3.01101878 5.28189174 -5.4375 7.6875 C-6.03433594 8.28949219 -6.63117187 8.89148438 -7.24609375 9.51171875 C-9 11 -9 11 -12 12 C-10.53033642 8.60140297 -8.61962486 6.35036291 -6 3.75 C-5.29875 3.04359375 -4.5975 2.3371875 -3.875 1.609375 C-2 0 -2 0 0 0 Z " fill="#7CA6C1" transform="translate(32,18)"/>
<path d="M0 0 C3 1 3 1 6 3 C5.34 4.65 4.68 6.3 4 8 C3.34 8 2.68 8 2 8 C1.67 8.99 1.34 9.98 1 11 C0.67 7.37 0.34 3.74 0 0 Z " fill="#BCA959" transform="translate(89,76)"/>
<path d="M0 0 C0.66 0.33 1.32 0.66 2 1 C0.75 3.9375 0.75 3.9375 -1 7 C-3.0625 7.8125 -3.0625 7.8125 -5 8 C-5.99 8.495 -5.99 8.495 -7 9 C-5.44499019 5.18315774 -2.96404505 2.80804268 0 0 Z " fill="#215576" transform="translate(130,102)"/>
<path d="M0 0 C1.65 0 3.3 0 5 0 C5.33 4.29 5.66 8.58 6 13 C5.34 13 4.68 13 4 13 C3.67 10.03 3.34 7.06 3 4 C2.01 4 1.02 4 0 4 C0 2.68 0 1.36 0 0 Z " fill="#BFAF6C" transform="translate(99,80)"/>
<path d="M0 0 C0.33 0 0.66 0 1 0 C2.10228696 4.40914783 2.07654536 8.48382401 2 13 C1.01 13.495 1.01 13.495 0 14 C-1.33224462 10.00326615 -1.13442113 6.16705497 -1 2 C-0.67 1.34 -0.34 0.68 0 0 Z " fill="#C7C4B5" transform="translate(87,69)"/>
<path d="M0 0 C2.96175123 0.61277612 4.38058783 1.25372522 7 3 C4.42786866 4.61949011 3.32330841 5.04408751 0.25 4.625 C-0.4925 4.41875 -1.235 4.2125 -2 4 C-1.34 2.68 -0.68 1.36 0 0 Z " fill="#B2A98C" transform="translate(46,114)"/>
<path d="M0 0 C0.66 1.32 1.32 2.64 2 4 C2.66 4.66 3.32 5.32 4 6 C3.625 9.625 3.625 9.625 3 13 C2.34 13 1.68 13 1 13 C0.67 8.71 0.34 4.42 0 0 Z " fill="#CABF8A" transform="translate(98,80)"/>
<path d="M0 0 C1.32 0 2.64 0 4 0 C4 3.96 4 7.92 4 12 C1.64046906 9.64046906 1.50858587 8.22104383 1 5 C1.66 5 2.32 5 3 5 C3 4.34 3 3.68 3 3 C2.01 3 1.02 3 0 3 C0 2.01 0 1.02 0 0 Z " fill="#B7A34D" transform="translate(37,78)"/>
<path d="M0 0 C0.99 0.33 1.98 0.66 3 1 C2 4 2 4 1 6 C-1.5625 6.625 -1.5625 6.625 -4 7 C-4.33 6.01 -4.66 5.02 -5 4 C-4.01 3.67 -3.02 3.34 -2 3 C-2 2.34 -2 1.68 -2 1 C-1.34 0.67 -0.68 0.34 0 0 Z " fill="#B29E61" transform="translate(102,111)"/>
<path d="M0 0 C0.99 0 1.98 0 3 0 C1.6062718 4.43458973 -0.60582235 6.87378374 -4 10 C-3.52449439 8.51965236 -3.04448784 7.04074979 -2.5625 5.5625 C-2.29566406 4.73878906 -2.02882812 3.91507812 -1.75390625 3.06640625 C-1 1 -1 1 0 0 Z " fill="#255B7E" transform="translate(134,90)"/>
<path d="M0 0 C0.66 0 1.32 0 2 0 C2 0.99 2 1.98 2 3 C2.99 3 3.98 3 5 3 C5.33 2.01 5.66 1.02 6 0 C6 2.97 6 5.94 6 9 C5.34 8.01 4.68 7.02 4 6 C1.94074861 5.27617533 1.94074861 5.27617533 0 5 C0 3.35 0 1.7 0 0 Z " fill="#B8A44B" transform="translate(51,76)"/>
<path d="M0 0 C0.99 0.33 1.98 0.66 3 1 C3 5.62 3 10.24 3 15 C2.34 15 1.68 15 1 15 C0.15318867 9.91913204 -0.09038099 5.15171623 0 0 Z " fill="#D3C68A" transform="translate(94,81)"/>
<path d="M0 0 C1.65 0 3.3 0 5 0 C5 1.32 5 2.64 5 4 C5.99 4.33 6.98 4.66 8 5 C7.67 5.99 7.34 6.98 7 8 C6.01 8.33 5.02 8.66 4 9 C4 8.01 4 7.02 4 6 C3.34 5.67 2.68 5.34 2 5 C2.33 3.68 2.66 2.36 3 1 C2.01 0.67 1.02 0.34 0 0 Z " fill="#B79E53" transform="translate(29,84)"/>
<path d="M0 0 C0.99 0.33 1.98 0.66 3 1 C3 4.63 3 8.26 3 12 C2.34 12 1.68 12 1 12 C1.01740234 11.07767578 1.01740234 11.07767578 1.03515625 10.13671875 C1.04417969 9.32847656 1.05320312 8.52023438 1.0625 7.6875 C1.07410156 6.88699219 1.08570312 6.08648437 1.09765625 5.26171875 C1.09657855 2.83138666 1.09657855 2.83138666 0 0 Z " fill="#C5B468" transform="translate(70,77)"/>
<path d="M0 0 C0.66 0 1.32 0 2 0 C2 2.97 2 5.94 2 9 C1.34 9 0.68 9 0 9 C-0.87890625 2.84765625 -0.87890625 2.84765625 -1 1 C-0.67 0.67 -0.34 0.34 0 0 Z " fill="#B19A3C" transform="translate(84,70)"/>
<path d="M0 0 C0.99 0.66 1.98 1.32 3 2 C2.34 3.32 1.68 4.64 1 6 C-0.32 5.34 -1.64 4.68 -3 4 C-2.67 3.01 -2.34 2.02 -2 1 C-1.34 0.67 -0.68 0.34 0 0 Z " fill="#BBB7AD" transform="translate(110,92)"/>
<path d="M0 0 C0.33 0 0.66 0 1 0 C1.125 6.625 1.125 6.625 0 10 C-0.66 10 -1.32 10 -2 10 C-2.33 8.68 -2.66 7.36 -3 6 C-2.34 6 -1.68 6 -1 6 C-0.67 4.02 -0.34 2.04 0 0 Z " fill="#B8A555" transform="translate(81,86)"/>
<path d="M0 0 C0.33 0.66 0.66 1.32 1 2 C1.99 1.67 2.98 1.34 4 1 C3.41321669 4.52069985 2.64350079 6.71299843 1 10 C0.67 6.7 0.34 3.4 0 0 Z " fill="#CBC6B2" transform="translate(81,65)"/>
<path d="M0 0 C0.66 0 1.32 0 2 0 C2 0.66 2 1.32 2 2 C3.32 1.67 4.64 1.34 6 1 C3.47211993 3.79872437 1.79588866 5.45773019 -2 6 C-1.34 4.02 -0.68 2.04 0 0 Z " fill="#B0A06E" transform="translate(60,119)"/>
<path d="M0 0 C0.66 0 1.32 0 2 0 C1.979375 0.928125 1.95875 1.85625 1.9375 2.8125 C1.84230396 6.02286011 1.84230396 6.02286011 3 9 C2.34 9.66 1.68 10.32 1 11 C-0.20272819 8.59454362 -0.10071472 7.05003047 -0.0625 4.375 C-0.05347656 3.55773437 -0.04445313 2.74046875 -0.03515625 1.8984375 C-0.02355469 1.27195312 -0.01195313 0.64546875 0 0 Z " fill="#B6A148" transform="translate(104,81)"/>
<path d="M0 0 C2.97 0.495 2.97 0.495 6 1 C6 1.99 6 2.98 6 4 C4.02 4 2.04 4 0 4 C0 2.68 0 1.36 0 0 Z " fill="#B49E41" transform="translate(51,71)"/>
<path d="M0 0 C1.98 0 3.96 0 6 0 C5.34 1.65 4.68 3.3 4 5 C3.34 5 2.68 5 2 5 C2 4.01 2 3.02 2 2 C1.34 2 0.68 2 0 2 C0 1.34 0 0.68 0 0 Z " fill="#B59D56" transform="translate(26,96)"/>
<path d="M0 0 C7.75 -0.125 7.75 -0.125 10 1 C10 1.66 10 2.32 10 3 C6.7 2.34 3.4 1.68 0 1 C0 0.67 0 0.34 0 0 Z " fill="#E1D9B2" transform="translate(50,70)"/>
<path d="M0 0 C0.66 0.66 1.32 1.32 2 2 C-4.625 5.125 -4.625 5.125 -8 4 C-5.36 2.68 -2.72 1.36 0 0 Z " fill="#7B858C" transform="translate(109,134)"/>
<path d="M0 0 C0.66 0.33 1.32 0.66 2 1 C2.33 1.99 2.66 2.98 3 4 C2.67 4.66 2.34 5.32 2 6 C1.01 5.67 0.02 5.34 -1 5 C-0.67 3.35 -0.34 1.7 0 0 Z " fill="#B3A068" transform="translate(87,109)"/>
<path d="M0 0 C1.32 0.33 2.64 0.66 4 1 C4 2.65 4 4.3 4 6 C2.68 5.67 1.36 5.34 0 5 C0 3.35 0 1.7 0 0 Z " fill="#D8CC98" transform="translate(49,81)"/>
<path d="M0 0 C2.00720923 0.28674418 4.0085944 0.61866701 6 1 C5.67 1.66 5.34 2.32 5 3 C2.4375 3.625 2.4375 3.625 0 4 C-0.33 3.01 -0.66 2.02 -1 1 C-0.67 0.67 -0.34 0.34 0 0 Z " fill="#BFAD5C" transform="translate(43,73)"/>
<path d="" fill="#2E2E2E" transform="translate(0,0)"/>
<path d="" fill="#2E2E2E" transform="translate(0,0)"/>
</svg>
